<svg width="59" height="52" viewBox="0 0 59 52" fill="none" xmlns="http://www.w3.org/2000/svg">
<path d="M56.5943 28.0742C52.5883 23.0502 42.0543 22.1972 39.3393 28.5522C38.1473 26.8432 36.2083 25.5862 34.3243 24.9222C29.4753 23.2132 24.9063 24.5702 21.4343 27.9362C21.4483 27.6962 21.4823 27.4662 21.4823 27.2172C21.4823 23.0042 21.3603 18.1102 22.8963 14.0652C24.0413 15.2112 26.1333 15.6892 27.4703 15.6272C30.8783 15.4712 34.1023 15.1942 35.4703 11.5762C36.7523 8.18322 35.2653 4.25622 32.9083 1.73522C31.2453 -0.0437827 30.6193 -0.0907826 28.2083 0.0492174C25.8343 0.187217 23.4483 0.312217 21.1033 0.733217C17.1773 1.43722 13.9233 7.45822 12.0353 10.6792C6.41633 20.2642 1.24233 30.7912 0.410329 42.0222C0.392329 42.2712 0.559329 42.4942 0.755329 42.6242C15.6183 52.4102 37.5713 54.5582 53.1093 44.8482C58.7643 41.3142 61.0573 33.6712 56.5943 28.0742ZM51.9463 43.9022C43.8153 48.6482 33.8263 50.2322 24.5383 49.4232C19.8043 49.0102 15.1193 47.9332 10.6843 46.2252C8.26433 45.2932 5.92333 44.1542 3.69233 42.8312C0.859329 41.1502 2.21933 37.6822 2.88333 34.9122C4.17233 29.5342 6.40133 24.4362 8.88733 19.5152C11.3133 14.7122 13.7823 9.81022 17.2203 5.63722C18.2133 4.43222 19.1583 3.20822 20.5633 2.51222C22.3223 1.64022 24.5663 1.66622 26.5113 1.54022C28.2743 1.42622 30.0663 1.15522 31.5823 2.35722C32.8653 3.37422 33.8233 5.25222 34.2233 6.79722C34.7463 8.81922 34.5873 11.6902 32.7543 13.0412C31.4623 13.9922 29.6673 14.0282 28.0923 14.1712C27.6703 14.2092 27.0793 14.3462 26.6483 14.2932C25.3953 14.1412 23.1823 12.7562 24.3023 11.1832C24.7813 10.5102 26.8153 10.1862 27.5843 10.2072C28.4813 10.2312 28.4803 8.83822 27.5843 8.81322C25.9043 8.76722 22.3313 9.76022 22.0983 11.8752C22.0783 12.0582 22.0783 12.2332 22.0923 12.4012C20.6263 15.5392 20.3713 19.1172 20.2173 22.5352C20.1333 24.4032 20.2523 26.3082 20.1133 28.1662C19.8533 31.6312 17.4503 34.3992 15.0643 36.7992C14.4313 37.4362 15.4163 38.4222 16.0493 37.7842C18.3623 35.4572 20.2503 33.1842 21.0593 30.3322C21.1153 30.2962 21.1723 30.2632 21.2233 30.2012C24.5303 26.2382 29.2443 24.4072 34.2263 26.3832C36.0763 27.1172 38.1573 28.5492 38.8413 30.5332C39.0463 31.1272 40.0493 31.2622 40.1853 30.5332C41.6553 22.6452 53.6783 24.8142 56.4873 30.6202C59.0073 35.8352 56.6983 41.1282 51.9463 43.9022Z" fill="#828282"/>
<path d="M36.7653 37.7104C34.5323 39.6824 32.5013 40.5234 29.5213 40.3404C26.6713 40.1644 24.0463 39.7624 21.6483 38.1354C20.9043 37.6304 20.2063 38.8374 20.9453 39.3384C23.7713 41.2544 27.0663 41.6844 30.4243 41.7794C33.3913 41.8634 35.5473 40.6414 37.7513 38.6964C38.4243 38.1004 37.4363 37.1184 36.7653 37.7104Z" fill="#828282"/>
<path d="M23.7413 32.3674C24.3773 31.1144 25.5653 30.3864 26.7333 29.6844C27.5013 29.2224 26.8013 28.0174 26.0303 28.4814C24.6643 29.3024 23.2813 30.2014 22.5383 31.6644C22.1323 32.4624 23.3343 33.1684 23.7413 32.3674Z" fill="#828282"/>
<path d="M28.2703 28.9585C29.1673 28.9585 29.1683 27.5645 28.2703 27.5645C27.3733 27.5645 27.3723 28.9585 28.2703 28.9585Z" fill="#828282"/>
</svg>
