<svg width="36" height="55" viewBox="0 0 36 55" fill="none" xmlns="http://www.w3.org/2000/svg">
<path d="M34.7359 16.8923C34.2323 14.9559 32.4269 13.1659 30.5659 11.9716C30.6224 11.9565 30.6832 11.9466 30.7379 11.9288C33.188 11.1493 32.3334 7.68244 32.3228 5.64087C32.3043 2.17492 32.6342 0.755 28.8646 0.420535C24.3701 0.0218525 19.873 0.0468259 15.3652 0.0147172C12.7264 -0.00401281 10.0875 -0.0361215 7.45399 0.148503C6.45384 0.218964 4.7781 0.0771507 4.05929 1.01722C2.94184 2.47906 3.55569 6.67459 3.54775 8.31391C3.53629 10.5009 3.65006 11.9021 5.62567 12.1134C3.3105 13.9784 1.45043 15.797 1.04473 19.1113C0.487326 23.6636 0.767791 28.4942 0.710463 33.0741C0.621385 40.1568 -1.68937 53.2 8.0405 54.4603C12.8851 55.0882 18.0323 54.504 22.9175 54.6039C26.1446 54.669 30.2255 55.2478 32.4331 52.3411C34.9617 49.0116 35.4106 43.6932 35.3347 39.6511C35.2598 35.683 35.3736 31.7122 35.3744 27.7441C35.3762 24.2327 35.6293 20.327 34.7359 16.8923ZM4.82308 5.07361C4.8416 4.44393 4.67226 3.00617 4.98801 2.42733C5.80294 0.933381 9.57335 1.27498 10.9104 1.25358C14.1649 1.20185 17.4255 1.26785 20.68 1.2955C23.2571 1.31779 26.9287 0.847758 29.3762 1.71023C31.3191 2.39432 31.0845 3.61624 31.0907 5.2511C31.0951 6.35707 31.3209 7.69136 31.1101 8.767C30.7176 10.7667 29.4758 10.7791 27.7031 10.8442C26.3272 10.8951 24.9505 10.9709 23.5737 10.9754C17.8885 10.9932 12.1522 10.4937 6.47236 10.8987C3.99844 10.9994 4.77457 6.74326 4.82308 5.07361ZM17.9124 24.304C19.1991 24.2764 21.9765 23.6164 23.1724 24.1239C23.7034 23.9312 23.893 24.1123 23.7422 24.6679C23.7854 25.426 23.8039 26.185 23.7995 26.945C23.796 28.2177 23.7201 29.4878 23.6363 30.7579C23.4529 33.5388 23.1751 36.3305 23.3153 39.1213C23.355 39.9044 23.7616 41.2725 23.5702 42.0476C23.1936 43.5754 22.1396 43.018 20.6465 42.9431C17.5807 42.7897 14.5088 42.7513 11.4405 42.8298C8.30068 42.9083 4.88041 43.5835 1.8385 42.6336C1.83497 41.2217 1.88877 39.8384 1.89583 38.6084C1.92229 33.7743 2.05899 28.9428 2.09074 24.1096C7.36844 24.1426 12.6382 24.4155 17.9124 24.304ZM33.9015 44.0758C33.4606 46.7685 32.7903 51.3707 30.1408 52.804C28.2067 53.8511 24.9866 53.4025 22.9175 53.3606C17.9565 53.2598 12.3586 54.1124 7.49897 53.1296C2.95683 52.2109 2.00784 48.0974 1.86055 43.9197C5.12383 44.8179 8.67816 44.1293 12.0146 44.0597C16.0461 43.9759 20.0714 44.1097 24.0914 44.4067C24.4424 44.4326 24.6797 44.0999 24.7062 43.785C24.9584 40.7213 24.4407 37.6336 24.6056 34.5413C24.8041 30.8355 25.163 27.1974 24.8799 23.4835C24.8543 23.1508 24.6188 22.8582 24.2652 22.8618C16.8619 22.9376 9.50015 22.901 2.09515 22.8627C2.08721 21.1654 2.05458 19.3352 2.53525 17.736C3.34314 15.0469 5.57451 13.6966 7.63303 12.0831C11.28 11.8913 15.0274 11.9796 18.6594 12.0626C20.9604 12.1152 23.243 12.2374 25.5458 12.1634C26.4075 12.1357 27.435 12.208 28.4342 12.2026C32.1006 13.7724 33.6625 16.5418 33.9509 20.2458C34.2517 24.1185 34.1538 28.0295 34.1194 31.9084C34.085 35.889 34.5454 40.1461 33.9015 44.0758Z" fill="#828282"/>
<path d="M8.58817 8.09028C8.51938 6.76937 8.49292 5.44845 8.51056 4.12576C8.52114 3.32572 7.29168 3.32482 7.2811 4.12576C7.26434 5.44845 7.28992 6.76937 7.35871 8.09028C7.40016 8.88586 8.62963 8.89121 8.58817 8.09028Z" fill="#828282"/>
<path d="M28.4324 8.09028C28.3637 6.76937 28.3372 5.44845 28.3548 4.12576C28.3654 3.32572 27.136 3.32482 27.1254 4.12576C27.1086 5.44845 27.1342 6.76937 27.203 8.09028C27.2453 8.88586 28.4739 8.89121 28.4324 8.09028Z" fill="#828282"/>
<path d="M13.5492 8.09028C13.4805 6.76937 13.454 5.44845 13.4716 4.12576C13.4822 3.32572 12.2527 3.32482 12.2422 4.12576C12.2254 5.44845 12.251 6.76937 12.3198 8.09028C12.3612 8.88586 13.5907 8.89121 13.5492 8.09028Z" fill="#828282"/>
<path d="M23.4714 8.09028C23.4026 6.76937 23.3761 5.44845 23.3938 4.12576C23.4044 3.32572 22.1749 3.32482 22.1643 4.12576C22.1475 5.44845 22.1731 6.76937 22.2419 8.09028C22.2834 8.88586 23.5128 8.89121 23.4714 8.09028Z" fill="#828282"/>
<path d="M18.5103 8.09028C18.4415 6.76937 18.4159 5.44845 18.4327 4.12576C18.4433 3.32572 17.2138 3.32482 17.2032 4.12576C17.1865 5.44845 17.2121 6.76937 17.2808 8.09028C17.3223 8.88586 18.5518 8.89121 18.5103 8.09028Z" fill="#828282"/>
<path d="M8.43206 39.2489C9.83351 39.1071 10.5364 38.0422 11.3302 37.0049C11.7095 36.509 12.1989 35.9524 12.7193 35.3558C12.565 37.3697 12.3992 39.9687 13.9602 41.2798C15.7736 42.8023 19.0245 42.1191 19.7795 39.8064C20.2531 38.357 20.2451 36.608 20.4286 35.1069C20.6394 33.3864 21.3 31.179 20.7029 29.4754C19.9118 27.2207 17.6795 26.5749 15.6748 27.3108C14.9375 26.046 13.3984 25.2531 11.9493 25.3842C10.2119 25.5412 9.29904 26.8354 8.34122 28.1251C6.82776 30.2389 3.35017 33.8779 4.40147 36.7569C4.96505 38.2982 6.81189 39.413 8.43206 39.2489ZM18.7917 38.3731C18.0049 41.8533 14.53 41.3422 13.9673 37.87C13.8032 36.8568 13.9347 35.6519 14.0035 34.6128C15.7921 34.9553 17.586 35.0686 19.4037 34.9357C19.215 36.41 18.9381 37.722 18.7917 38.3731ZM19.5334 33.687C17.78 33.827 16.0496 33.7378 14.3236 33.4123C15.5072 31.8443 16.4209 30.1256 16.0964 28.4479C19.3605 27.0664 19.7927 30.428 19.5334 33.687ZM13.8271 27.2938C15.2197 28.2027 15.1791 29.5807 14.3862 30.8935C13.9497 31.616 13.4469 32.3126 12.9283 33.0002C11.3196 32.21 9.84057 31.2227 8.50086 30.023C8.80161 29.6003 9.09883 29.1775 9.40399 28.7521C10.4747 27.309 12.0746 26.1504 13.8271 27.2938ZM5.88935 34.2195C6.019 33.7922 6.34092 33.3704 6.55876 32.9877C6.94242 32.3135 7.36224 31.6749 7.79264 31.0425C9.12441 32.2145 10.5814 33.2054 12.1637 33.9983C11.4969 34.8384 10.816 35.667 10.1775 36.4974C9.41193 37.4919 7.67974 38.588 6.53848 37.4963C5.97578 36.9585 5.67591 34.9223 5.88935 34.2195Z" fill="#828282"/>
<path d="M25.3826 14.013C24.6091 13.8748 24.2775 15.0726 25.0563 15.2118C27.0072 15.5605 28.7738 16.5077 29.7589 18.3192C30.6841 20.0209 30.5201 22.1249 30.6047 24.0095C30.64 24.806 31.8695 24.8105 31.8342 24.0095C31.7292 21.6754 31.8598 19.2236 30.5201 17.1989C29.3329 15.4062 27.4446 14.3823 25.3826 14.013Z" fill="#828282"/>
<path d="M31.208 26.0449C30.4169 26.0449 30.416 27.2882 31.208 27.2882C31.9991 27.2882 32.0009 26.0449 31.208 26.0449Z" fill="#828282"/>
</svg>
