<svg width="58" height="53" viewBox="0 0 58 53" fill="none" xmlns="http://www.w3.org/2000/svg">
<path d="M56.863 50.4133C55.435 49.6173 54.007 48.8203 52.836 48.1683C51.866 49.3473 51.126 50.9703 49.894 51.5513C48.516 52.2013 46.693 51.9903 45.063 51.9893C44.087 51.9883 43.057 51.8183 42.145 51.4743C34.847 48.7203 27.498 49.7163 20.104 50.9663C16.692 51.5433 13.23 51.9793 9.776 52.1113C6.58 52.2333 5.437 51.0473 4.926 47.8623C4.115 48.3443 3.37 48.8053 2.607 49.2343C1.912 49.6243 1.196 49.9793 0.49 50.3493C0.327 50.1703 0.163 49.9913 0 49.8123C0.421 49.3213 0.781 48.7563 1.274 48.3523C3.501 46.5233 5.907 44.8873 7.986 42.9063C11.499 39.5563 12.622 35.0903 13.576 30.4743C14.233 27.2973 15.423 24.1743 16.783 21.2153C17.844 18.9063 20.067 17.7713 22.676 17.7433C26.558 17.7013 30.441 17.7073 34.324 17.7193C37.349 17.7283 39.7 19.1553 40.895 21.8163C42.132 24.5713 43.344 27.4983 43.705 30.4553C44.694 38.5533 49.066 44.1183 55.768 48.2233C56.347 48.5783 56.863 49.0343 57.409 49.4433C57.226 49.7663 57.044 50.0893 56.863 50.4133ZM23.196 47.0413C23.157 46.7243 23.118 46.4073 23.08 46.0903C24.331 46.0423 25.65 45.7123 26.821 45.9943C31.795 47.1923 36.704 48.6663 41.683 49.8423C43.827 50.3493 46.086 50.5603 48.288 50.5313C49.084 50.5213 49.865 49.4163 50.653 48.8113C50.05 48.1103 49.578 47.1403 48.815 46.7723C47.654 46.2123 46.306 45.9783 45.011 45.7693C42.73 45.4003 40.398 45.3033 38.144 44.8263C33.365 43.8153 31.607 41.0653 32.701 36.3193C33.608 32.3843 34.697 28.4923 35.738 24.5893C35.822 24.2763 36.157 24.0303 36.799 23.2143C36.799 24.8693 36.995 25.9133 36.763 26.8513C36.011 29.8923 35.068 32.8853 34.261 35.9133C33.064 40.4103 34.52 42.8283 39.003 43.5643C42.224 44.0933 45.483 44.3933 48.71 44.7933C43.968 38.3003 43.999 38.2933 42.101 29.4293C41.689 27.5053 41.098 25.5923 40.352 23.7713C39.026 20.5323 36.564 18.9103 32.982 19.0323C30.67 19.1113 28.353 19.0443 26.038 19.0453C19.529 19.0463 17.232 20.8343 15.643 27.2303C15.225 28.9113 14.889 30.6183 14.626 32.3293C13.996 36.4333 12.465 40.1073 9.703 43.2433C9.35 43.6443 9.097 44.1333 8.679 44.7613C11.472 44.3973 13.994 43.9803 16.534 43.7553C22.834 43.1973 24.433 40.7813 22.588 34.6663C21.684 31.6693 20.955 28.6183 20.221 25.5743C20.082 24.9973 20.297 24.3353 20.349 23.7123C21.108 23.9903 21.415 24.2813 21.507 24.6283C22.415 28.0523 23.241 31.4983 24.18 34.9133C25.878 41.0883 23.841 44.2693 17.542 45.1373C16.888 45.2273 16.215 45.1873 15.566 45.2953C13.369 45.6593 11.119 45.8713 9.014 46.5373C8.063 46.8383 7.406 48.0703 6.616 48.8793C7.578 49.4763 8.591 50.6553 9.493 50.5753C15.93 50.0013 22.344 49.1713 28.765 48.4223C28.754 48.1943 28.744 47.9653 28.733 47.7373C26.886 47.5063 25.041 47.2733 23.196 47.0413Z" fill="#828282"/>
<path d="M28.729 0.000273134C33.235 0.0362731 36.894 3.72827 36.875 8.21827C36.856 12.6563 33.08 16.4283 28.659 16.4283C24.073 16.4273 20.362 12.6343 20.437 8.02427C20.511 3.49127 24.156 -0.0357269 28.729 0.000273134ZM35.383 8.08027C35.334 4.33427 32.245 1.38327 28.465 1.46927C24.774 1.55327 21.902 4.48327 21.9 8.16627C21.898 11.9413 24.921 14.9623 28.673 14.9363C32.395 14.9103 35.432 11.8073 35.383 8.08027Z" fill="#828282"/>
</svg>
