<svg width="62" height="45" viewBox="0 0 62 45" fill="none" xmlns="http://www.w3.org/2000/svg">
<path d="M61.576 37.1436C61.363 36.0276 60.992 34.9576 59.866 34.4876C59.148 34.1876 58.318 34.2426 57.556 34.2166C56.472 34.1796 55.393 34.1606 54.311 34.2026C54.055 33.4976 53.779 32.7986 53.529 32.0916C52.401 28.9136 51.286 25.7156 50.401 22.4606C49.636 19.6486 48.492 16.8146 47.872 13.9886C50.004 13.7516 52.135 13.5136 54.262 13.2326C56.311 12.9626 59.886 13.1176 59.683 10.3276C59.506 7.88556 58.258 7.39056 56.659 7.44256C56.146 5.43856 54.952 -0.250439 52.473 0.00856057C50.971 0.165561 48.655 2.54556 47.422 3.35156C44.748 5.09856 42.1 6.86056 39.658 8.92556C39.586 8.98656 39.542 9.05356 39.505 9.12056C38.816 9.17956 38.125 9.23456 37.438 9.29756C31.907 9.80356 26.352 10.2706 20.835 10.9076C18.547 11.1716 15.571 11.0626 15.888 14.0066C16.205 16.9496 18.445 16.7276 20.798 16.6056C26.85 16.2926 32.885 15.7606 38.899 15.0196C38.906 15.0696 38.901 15.1156 38.921 15.1696C41.229 21.4886 43.369 27.8716 45.471 34.2636C31.912 34.4756 18.324 33.8646 4.78999 34.9436C1.12899 35.2356 0.0249908 35.8876 0.523991 39.8316C0.834991 42.2926 2.12399 42.5006 4.51499 42.5606C5.05999 42.5746 5.60599 42.5776 6.15099 42.5896C6.12499 42.6526 6.09699 42.7136 6.08899 42.7906C5.82099 45.4096 9.55399 44.6606 11.161 44.6146C12.074 44.5886 13.633 44.8686 14.459 44.4316C15.02 44.1346 15.176 43.3916 15.188 42.7496C26.165 42.8756 37.151 42.8236 48.123 42.8926C48.375 43.3486 48.656 43.7476 48.999 44.0006C50.384 45.0226 55.248 44.9166 56.538 44.1156C57.34 43.6186 57.455 43.0226 57.322 42.3706C58.692 42.3146 59.927 42.1716 60.881 40.9766C61.793 39.8306 61.839 38.5206 61.576 37.1436ZM51.453 2.33656C51.606 2.22856 52.406 1.42456 52.631 1.47356C53.029 1.55956 53.401 2.79056 53.616 3.20856C54.34 4.61856 54.827 6.07256 55.244 7.58256C54.725 7.65656 54.192 7.74556 53.665 7.81056C49.778 8.29256 45.843 8.59656 41.92 8.91456C44.975 6.54156 48.296 4.57356 51.453 2.33656ZM17.395 14.1116C16.841 11.7776 25.16 11.9146 26.956 11.7306C30.655 11.3496 34.352 10.9756 38.055 10.6356C41.347 10.3326 44.614 9.82356 47.918 9.66556C49.454 9.59256 50.976 9.51356 52.506 9.34256C53.393 9.24356 56.89 8.26456 57.711 8.92656C59.812 10.6206 56.12 11.5776 55.124 11.7216C53.285 11.9876 51.436 12.1976 49.59 12.4076C46.188 12.7936 42.784 13.1466 39.387 13.5676C35.611 14.0406 31.827 14.4356 28.033 14.7366C26.074 14.8916 17.927 16.3526 17.395 14.1116ZM13.172 43.1606C12.532 43.2626 11.804 43.2006 11.159 43.2196C10.702 43.2326 7.39799 43.5946 7.48099 42.7896C7.48799 42.7216 7.47199 42.6696 7.46299 42.6116C9.57699 42.6556 11.691 42.6966 13.806 42.7236C13.793 43.0456 13.654 43.0836 13.172 43.1606ZM9.36999 41.2136C7.61199 41.1986 5.71999 41.3776 3.97499 41.1586C1.91399 40.8996 1.96199 40.7646 1.85799 39.2126C1.77299 37.9466 1.69599 37.3656 2.70199 36.7016C4.54099 35.4866 9.33999 36.0216 11.572 35.9256C23.019 35.4336 34.48 35.8466 45.932 35.6516C46.036 35.9696 46.145 36.2866 46.249 36.6036C46.628 37.7626 46.942 39.7976 47.513 41.4926C34.798 41.4106 22.084 41.3266 9.36999 41.2136ZM52.151 43.0516C50.061 42.8516 49.527 42.2346 48.929 40.3626C48.327 38.4796 47.705 36.6026 47.086 34.7246C47.079 34.6996 47.072 34.6756 47.062 34.6506C46.782 33.8016 46.511 32.9506 46.229 32.1026C44.312 26.3336 42.369 20.5696 40.285 14.8586C42.353 14.6096 44.422 14.3776 46.492 14.1496C46.495 14.1756 46.487 14.1976 46.493 14.2236C46.981 16.5086 48.044 18.6396 48.576 20.9286C49.119 23.2646 49.844 25.5556 50.594 27.8326C51.409 30.3046 52.282 32.7586 53.176 35.2026C53.176 35.2036 53.176 35.2046 53.177 35.2046C53.24 35.3766 53.3 35.5496 53.364 35.7216C53.913 37.2176 55.904 40.4106 55.732 41.9846C55.589 43.2966 53.409 43.1716 52.151 43.0516ZM59.997 39.8146C59.28 41.0116 58.058 40.9546 56.839 40.9926C56.797 40.8906 56.754 40.7886 56.714 40.6846C56.061 38.9926 55.449 37.2856 54.823 35.5836C55.734 35.5666 56.643 35.5786 57.556 35.6106C58.786 35.6526 59.735 35.5616 60.105 36.8996C60.368 37.8526 60.53 38.9256 59.997 39.8146Z" fill="#828282"/>
<path d="M45.659 19.4496C45.362 18.6096 44.015 18.9716 44.315 19.8196C46.379 25.6646 48.173 31.5996 50.333 37.4106C50.643 38.2436 51.99 37.8836 51.677 37.0406C49.517 31.2296 47.723 25.2946 45.659 19.4496Z" fill="#828282"/>
<path d="M27.959 23.3538C28.856 23.3528 28.857 21.9598 27.959 21.9598C24.44 21.9618 20.924 21.8278 17.405 21.8208C16.508 21.8188 16.507 23.2128 17.405 23.2148C20.924 23.2208 24.44 23.3558 27.959 23.3538Z" fill="#828282"/>
<path d="M10.468 23.2845C11.271 23.2975 12.074 23.2715 12.878 23.2845C13.775 23.2995 13.775 21.9055 12.878 21.8905C12.075 21.8775 11.272 21.9035 10.468 21.8905C9.57099 21.8755 9.57099 23.2695 10.468 23.2845Z" fill="#828282"/>
<path d="M10.18 29.1427C15.239 28.8587 20.374 29.1617 25.448 29.0577C26.344 29.0397 26.347 27.6457 25.448 27.6637C20.374 27.7677 15.239 27.4637 10.18 27.7487C9.28799 27.7997 9.28199 29.1937 10.18 29.1427Z" fill="#828282"/>
<path d="M35.532 29.2026C36.426 29.2716 36.422 27.8776 35.532 27.8086C33.52 27.6536 31.503 27.7966 29.488 27.7716C28.591 27.7606 28.591 29.1536 29.488 29.1656C31.503 29.1916 33.52 29.0486 35.532 29.2026Z" fill="#828282"/>
<path d="M3.91799 29.1528C4.75999 29.0778 5.63699 29.0778 6.47899 29.1538C7.37199 29.2338 7.36599 27.8408 6.47899 27.7598C5.63699 27.6838 4.75999 27.6838 3.91799 27.7588C3.03199 27.8388 3.02299 29.2328 3.91799 29.1528Z" fill="#828282"/>
</svg>
