<svg width="62" height="35" viewBox="0 0 62 35" fill="none" xmlns="http://www.w3.org/2000/svg">
<path d="M61.6935 17.9196C61.6545 17.3863 61.5815 16.858 61.5665 16.3237C61.5495 15.7127 61.6805 15.0718 61.2905 14.5564C60.6595 13.7221 59.5175 13.8358 58.5575 13.8567C58.5305 12.4582 58.5005 11.0587 58.4995 9.66025C58.4995 8.69735 58.8225 7.04868 58.2325 6.18945C57.2655 4.78199 54.4225 4.95842 52.7215 4.91157C52.7065 4.67434 52.7095 4.4371 52.6885 4.20087C52.3745 0.592512 50.4075 0.0273362 46.9355 0.000423045C43.1005 -0.0274869 42.1035 1.32216 41.8375 5.07106C41.6275 8.02851 41.5525 11.0099 41.5085 13.9883C37.8495 14.2893 33.9365 13.8647 30.2595 13.9085C27.1045 13.9454 23.9295 13.9654 20.7745 14.088C20.7295 11.1355 20.6455 8.18202 20.4385 5.25048C20.1775 1.53547 19.1835 0.151934 15.3405 0.179844C12.6615 0.175857 9.90946 0.436017 9.56246 3.48019C9.50146 4.01447 9.45846 4.55373 9.42746 5.09498C7.75347 5.12688 5.13846 4.98434 4.16446 6.21237C2.92146 7.77932 3.49546 11.9369 3.48146 13.766C3.48146 13.8288 3.47846 13.8966 3.47846 13.9594C2.72146 13.9215 1.80946 13.8667 1.19147 14.1288C0.0634651 14.6053 0.483465 16.5181 0.494465 17.474C0.505465 18.4658 0.147465 20.0497 1.39347 20.3129C2.01647 20.4444 2.68346 20.4704 3.34246 20.4494C3.34546 22.7809 3.47946 25.0994 3.99746 27.1428C4.64646 29.7006 7.10946 29.6896 9.50546 29.7365C9.52746 30.0654 9.52846 30.4043 9.55646 30.7302C9.84146 33.9668 11.6185 34.1811 14.4925 34.229C16.3205 34.2589 19.2025 34.8978 20.2685 33.0667C20.8975 31.9852 20.7655 30.1043 20.8045 28.9002C20.8875 26.3085 20.8665 23.7109 20.8435 21.1193C20.8415 20.9129 20.8405 20.7046 20.8385 20.4983C27.6875 20.4165 34.5975 20.7574 41.4325 20.3946C41.4075 22.7121 41.3995 25.0306 41.4405 27.3472C41.4675 28.8463 41.2175 30.7512 41.7025 32.1826C42.5305 34.6267 45.4165 34.0844 47.5815 34.0515C50.0265 34.0146 52.0595 34.1731 52.6335 31.3612C52.7515 30.7851 52.8125 30.179 52.8395 29.557C55.1175 29.5132 57.6145 29.5062 58.2655 27.0571C58.7815 25.1174 58.8345 22.8866 58.7755 20.6717C59.5465 20.7146 60.4355 20.6767 61.0535 20.3657C61.9245 19.9251 61.7525 18.7419 61.6935 17.9196ZM1.88646 19.0161C1.81746 18.3951 1.88847 17.6973 1.88247 17.1012C1.87847 16.7284 1.86847 16.3546 1.86946 15.9818C1.86946 15.8862 1.95546 15.4217 1.83346 15.3788C2.06947 15.317 2.58646 15.3648 2.77346 15.3599C2.99946 15.3539 3.22546 15.3618 3.45146 15.3658C3.42046 16.5719 3.37646 17.8339 3.35446 19.1068C2.87546 19.1307 2.34246 19.1038 1.88646 19.0161ZM5.29446 25.9836C5.03546 24.9359 5.13846 23.68 5.08246 22.5935C4.93046 19.654 4.85246 16.7095 4.87446 13.766C4.88746 12.0376 4.69246 9.97124 5.10146 8.2817C5.58046 6.30308 7.50746 6.52736 9.37946 6.48749C9.32046 9.72902 9.62846 13.0503 9.56546 16.25C9.48746 20.1903 9.27146 24.3449 9.43246 28.3489C7.24146 28.3121 5.90046 28.4396 5.29446 25.9836ZM19.3835 29.9119C19.2835 31.42 19.4405 32.4965 17.8435 32.8634C16.9645 33.0657 15.6145 32.8753 14.7335 32.8624C13.0395 32.8384 11.4315 32.0928 10.9505 30.3295C10.6035 29.0557 10.9955 27.1448 10.9825 25.8111C10.9515 22.6214 10.8965 19.4397 10.9585 16.249C11.0005 14.1398 10.9345 12.0386 10.8995 9.93137C10.8715 8.26276 11.0125 6.60311 10.9965 4.93649C10.9695 2.19434 12.8185 1.56637 15.3395 1.57036C16.5615 1.56139 18.1405 2.20431 18.8365 3.29778C19.2395 3.93174 19.0425 5.47575 19.0825 6.26221C19.1655 7.89195 19.1975 9.52568 19.2465 11.1574C19.3395 14.2823 19.4105 17.4072 19.4435 20.5332C19.4755 23.6431 19.5895 26.8049 19.3835 29.9119ZM20.8275 19.1088C20.8185 17.8997 20.8055 16.6896 20.7915 15.4765C23.9415 15.3549 27.1095 15.3349 30.2595 15.2981C33.9295 15.2542 37.8355 15.6768 41.4875 15.3788C41.4725 16.5899 41.4595 17.798 41.4445 19.0041C34.6025 19.3689 27.6845 19.027 20.8275 19.1088ZM51.3755 9.75195C51.3225 11.8591 51.2755 13.9614 51.3165 16.0696C51.3755 19.0589 51.3345 22.0393 51.2995 25.0286C51.2615 28.327 52.2695 32.5902 47.5815 32.662C46.7995 32.674 45.3475 32.961 44.6065 32.6331C42.5085 31.7041 42.8885 30.0873 42.8555 28.3838C42.7975 25.4393 42.7945 22.4948 42.8325 19.5503C42.8715 16.4882 42.9485 13.4261 43.0455 10.365C43.1495 7.05765 42.1545 1.35605 46.9365 1.39094C49.7765 1.41286 50.8665 2.34087 51.3345 5.31527C51.5585 6.74466 51.4115 8.3116 51.3755 9.75195ZM57.1585 22.8337C57.1245 23.7986 57.2305 24.9798 56.9865 25.9287C56.3875 28.2622 54.9235 28.1356 52.8495 28.1685C52.8215 26.6913 52.6915 25.1841 52.7115 23.8166C52.7505 21.2309 52.7605 18.6552 52.7095 16.0696C52.6455 12.824 52.8825 9.55259 52.7865 6.30408C53.6475 6.33099 54.5845 6.31305 55.3715 6.52736C56.9255 6.95199 56.9545 7.1045 57.1155 8.86083C57.3135 11.0308 57.1645 13.3035 57.1925 15.4825C57.2245 17.9316 57.2445 20.3846 57.1585 22.8337ZM58.7275 19.2314C58.6715 17.9316 58.6025 16.6587 58.5875 15.4825C58.5865 15.4057 58.5845 15.3299 58.5835 15.2532C58.9045 15.2542 59.2255 15.2562 59.5475 15.2672C60.0195 15.2841 60.0275 15.1844 60.1675 15.5502C60.2775 15.8383 60.1695 16.3437 60.1865 16.6577C60.2085 17.0544 60.2635 17.4471 60.2945 17.8428C60.3195 18.1618 60.3345 18.4838 60.3315 18.8037C60.3315 18.8307 60.3045 19.029 60.3135 19.1416C60.2655 19.1616 60.2145 19.1795 60.1715 19.1795C59.6875 19.1765 59.2085 19.2204 58.7275 19.2314Z" fill="#828282"/>
</svg>
